<svg width="19" height="19" viewBox="0 0 19 19" fill="none" xmlns="http://www.w3.org/2000/svg">
<path d="M4.80968 7.06987C4.80968 7.17076 4.80963 7.27156 4.80959 7.3723C4.80944 7.67442 4.8093 7.97595 4.81044 8.2777C4.81053 8.30841 4.81013 8.33928 4.80972 8.37019C4.80831 8.47852 4.80689 8.58738 4.82641 8.69203C4.84009 8.76487 4.84952 8.83829 4.85894 8.91158C4.86497 8.95845 4.87099 9.00528 4.87811 9.05186C4.89332 9.15014 4.91597 9.24616 4.9386 9.3421C4.95104 9.39484 4.96347 9.44755 4.97466 9.5006C5.01269 9.65803 5.06277 9.8122 5.12443 9.9617C5.50769 10.9502 6.20298 11.7812 7.10112 12.3244C7.3217 12.4557 7.55184 12.5697 7.78954 12.6653C7.93783 12.7272 8.09027 12.7782 8.2457 12.818C8.3491 12.8427 8.45249 12.869 8.55551 12.8953C8.59556 12.9047 8.63612 12.909 8.67642 12.9132C8.72067 12.9179 8.76459 12.9226 8.80716 12.9339C8.91901 12.9643 9.03353 12.9703 9.14748 12.9763C9.21593 12.9799 9.28417 12.9834 9.35151 12.9923C9.46861 13.0077 9.58571 12.997 9.70292 12.9864C9.76529 12.9808 9.8277 12.9751 9.89016 12.9733C9.96472 12.9712 10.0379 12.9587 10.1109 12.9463C10.1839 12.9338 10.2569 12.9214 10.3311 12.9192C10.344 12.9192 10.3569 12.9172 10.3691 12.913C10.4395 12.8859 10.513 12.8698 10.587 12.8537C10.6412 12.8419 10.6957 12.8301 10.7493 12.8137C10.8846 12.7739 11.0207 12.7329 11.1507 12.6804C11.366 12.5959 11.5753 12.4963 11.7771 12.3824C12.3124 12.0767 12.7839 11.6678 13.165 11.1784C13.2329 11.0955 13.2964 11.009 13.3551 10.9191C13.381 10.8757 13.4075 10.8326 13.4339 10.7895C13.5109 10.6639 13.588 10.5383 13.6531 10.4054C13.7663 10.1771 13.8618 9.94006 13.9386 9.69655L13.9409 9.68912C13.9712 9.59176 14 9.49945 14.0222 9.39354C14.0299 9.35708 14.0395 9.32106 14.0491 9.28504C14.0682 9.21375 14.0872 9.14244 14.091 9.06771C14.0917 9.0575 14.0941 9.04666 14.0965 9.03569C14.0983 9.02755 14.1001 9.01935 14.1013 9.01128C14.1274 8.87991 14.146 8.74712 14.1571 8.61357C14.1703 8.21266 14.1686 7.81153 14.167 7.41051C14.1664 7.27685 14.1659 7.1432 14.1659 7.00957V5.52153C14.1659 5.42336 14.1666 5.42336 14.2586 5.42336H14.7338C14.757 5.42336 14.7802 5.42314 14.8034 5.42293C14.8499 5.4225 14.8965 5.42207 14.9429 5.42336C14.9836 5.42452 14.9999 5.40558 14.9999 5.36693V4.06634C15.0014 4.02305 14.9858 3.99986 14.9391 4.00295C14.9137 4.00424 14.8884 4.00381 14.8631 4.00338C14.8504 4.00317 14.8377 4.00295 14.825 4.00295H12.4302C12.3306 4.00295 12.3219 4.00875 12.3219 4.10228V5.3391C12.3219 5.41833 12.3317 5.42606 12.4112 5.42606H13.0289C13.1258 5.42645 13.1258 5.42761 13.1258 5.52192C13.1215 5.90351 13.1238 6.28521 13.1262 6.66696C13.13 7.29595 13.1338 7.92507 13.108 8.55405C13.0996 8.69818 13.0805 8.84146 13.051 8.98268C13.0258 9.11371 12.9919 9.24284 12.9495 9.36918C12.8866 9.56514 12.8087 9.75575 12.7164 9.93928C12.4029 10.5431 11.9341 11.0493 11.3601 11.4037C11.1685 11.5217 10.9658 11.6198 10.755 11.6967C10.6369 11.7376 10.5175 11.7746 10.3986 11.8114L10.3809 11.8169C10.2148 11.8655 10.0445 11.8979 9.87229 11.9135C9.63074 11.9411 9.38575 11.9303 9.14223 11.9195C9.12937 11.9189 9.11651 11.9184 9.10366 11.9178C9.09724 11.9184 9.09076 11.9176 9.08466 11.9155C9.02175 11.8864 8.95482 11.8814 8.88748 11.8765C8.83232 11.8724 8.77689 11.8683 8.72315 11.8509C8.66924 11.8331 8.61323 11.8197 8.55722 11.8064C8.49671 11.7919 8.43621 11.7775 8.37837 11.7574C8.22833 11.7054 8.08102 11.6455 7.93703 11.5781C7.65376 11.4449 7.38935 11.2737 7.15092 11.069C6.93602 10.8896 6.74442 10.6831 6.58072 10.4545C6.5635 10.4295 6.54613 10.4048 6.52876 10.38C6.47061 10.2971 6.41261 10.2145 6.36138 10.1252C6.28177 9.99052 6.21091 9.85069 6.14927 9.7066C6.08641 9.5619 6.03369 9.41285 5.99151 9.26058C5.95502 9.1195 5.92271 8.9765 5.89952 8.83117C5.86353 8.60647 5.84409 8.37934 5.84136 8.1517C5.83559 7.60646 5.83658 7.06123 5.83756 6.516C5.83794 6.30755 5.83832 6.09909 5.83832 5.89064C5.83832 5.82455 5.83775 5.75855 5.83718 5.69256C5.83661 5.62656 5.83604 5.56057 5.83604 5.49447C5.83604 5.42684 5.83832 5.42452 5.90637 5.42452H6.60011C6.63588 5.42452 6.65412 5.42452 6.66378 5.41541C6.67382 5.40594 6.67458 5.38663 6.67613 5.34722V4.60319C6.67613 4.55064 6.67605 4.49797 6.67597 4.44527C6.6758 4.33984 6.67563 4.23435 6.67613 4.12973C6.67678 3.99729 6.67119 3.99755 6.60087 4.00085C6.58787 4.00146 6.57266 4.00218 6.55487 4.00218H4.10302C4.00532 4.00218 4.00228 4.00566 4 4.1046V5.27378C4 5.4249 4.00038 5.4249 4.14977 5.4249H4.73898C4.80734 5.42529 4.8074 5.42722 4.80968 5.49467L4.80968 7.06987Z" fill="white"/>
<path fill-rule="evenodd" clip-rule="evenodd" d="M0 0H19V19H0V0ZM0.8 0.8H18.2V18.2H0.8V0.8Z" fill="white"/>
</svg>
