<svg width="23" height="20" viewBox="0 0 23 20" fill="none" xmlns="http://www.w3.org/2000/svg">
<path d="M11.1127 19.8332L1.89383 10.7778C1.51357 10.4154 1.18375 10.0044 0.913091 9.55561C0.175881 8.35181 -0.128465 6.93605 0.0496201 5.5389C0.227705 4.14175 0.877729 2.84552 1.89383 1.86133C2.53832 1.22469 3.31163 0.730695 4.16276 0.411915C5.01389 0.0931357 5.92352 -0.043189 6.83167 0.0119285C7.73983 0.0670459 8.62588 0.312354 9.43143 0.73168C10.237 1.15101 10.9437 1.73483 11.505 2.44465C12.0664 1.73483 12.7731 1.15101 13.5787 0.73168C14.3842 0.312354 15.2703 0.0670459 16.1784 0.0119285C17.0866 -0.043189 17.9962 0.0931357 18.8473 0.411915C19.6985 0.730695 20.4718 1.22469 21.1163 1.86133C22.1264 2.8491 22.7722 4.14477 22.9501 5.5402C23.1279 6.93563 22.8275 8.34982 22.097 9.55561C21.8263 10.0044 21.4965 10.4154 21.1163 10.7778L11.8973 19.8332C11.8468 19.8859 11.7859 19.9279 11.7185 19.9565C11.651 19.9852 11.5784 20 11.505 20C11.4317 20 11.359 19.9852 11.2916 19.9565C11.2242 19.9279 11.1633 19.8859 11.1127 19.8332V19.8332ZM6.43324 1.11135C5.02773 1.11166 3.67885 1.66048 2.67842 2.63909C1.84869 3.453 1.31784 4.51892 1.17055 5.6668C1.02327 6.81469 1.26804 7.9784 1.86581 8.97229C2.09615 9.34455 2.3688 9.68939 2.67842 10L11.505 18.6665L20.3317 10C20.6478 9.6951 20.9211 9.34942 21.1443 8.97229C21.7505 7.98089 22.0002 6.8152 21.8526 5.66515C21.7051 4.5151 21.169 3.44849 20.3317 2.63909C19.3283 1.66492 17.9813 1.11687 16.5769 1.11135C15.6503 1.10821 14.739 1.34488 13.933 1.79795C13.127 2.25102 12.4543 2.9048 11.9814 3.69463C11.9296 3.77731 11.8574 3.84552 11.7716 3.89283C11.6858 3.94013 11.5892 3.96496 11.491 3.96496C11.3929 3.96496 11.2963 3.94013 11.2105 3.89283C11.1247 3.84552 11.0525 3.77731 11.0007 3.69463C10.5364 2.90334 9.86949 2.24769 9.06743 1.79405C8.26537 1.34042 7.35664 1.1049 6.43324 1.11135V1.11135Z" fill="white"/>
</svg>
