<svg width="41" height="34" viewBox="0 0 41 34" fill="none" xmlns="http://www.w3.org/2000/svg">
<path d="M26.7273 0.280121C26.4063 0.259668 26.0851 0.239201 25.8208 0L23.5844 0.00561415C23.5295 0.193712 23.396 0.190428 23.263 0.187158C23.2148 0.18597 23.1665 0.184784 23.1222 0.19276C20.8652 0.596995 19.1547 1.75917 18.0692 3.77848C16.7499 6.23383 17.0624 9.26185 18.7916 10.9593C19.1659 11.3242 19.5552 11.6891 20.2532 11.7191C20.1845 11.641 20.1324 11.5769 20.0884 11.5228C20.0272 11.4475 19.9818 11.3917 19.9295 11.3448C16.6357 8.4066 18.4847 3.81404 21.4622 2.44974C21.4917 2.43604 21.5227 2.41469 21.5551 2.39246C21.6642 2.31741 21.7879 2.23234 21.9152 2.39752C21.914 2.40671 21.913 2.4162 21.9121 2.42599L21.9071 2.43102L21.9118 2.43051L21.9113 2.43664L21.9176 2.43038C21.9106 2.44684 21.9042 2.46428 21.8977 2.48172C21.8781 2.53507 21.8584 2.58862 21.821 2.61442C19.9215 3.88888 19.4985 5.73789 19.8466 7.83953C20.0581 9.11961 20.8179 9.96177 21.8472 10.2275C21.7571 10.0172 21.6659 9.8094 21.5753 9.60295C21.3669 9.12813 21.1614 8.65987 20.9789 8.18388C20.2153 6.18704 20.584 5.07726 22.4012 3.94129C22.9352 3.6083 23.486 3.30073 24.0545 2.98318C24.3167 2.83675 24.5829 2.68809 24.8528 2.53395C24.0335 2.1072 23.2591 2.22863 22.4967 2.34817C22.3033 2.3785 22.11 2.40927 21.9176 2.43038L21.9301 2.41793C21.9251 2.41074 21.9201 2.40394 21.9152 2.39752C21.9479 2.15116 22.1254 2.11582 22.3269 2.07568C22.3485 2.07138 22.3703 2.06703 22.3923 2.06235C25.5457 1.38114 28.4727 2.76415 29.9511 5.65181C30.198 6.13191 30.4339 6.61797 30.6749 7.11434C30.7645 7.29893 30.8549 7.48532 30.9467 7.67298C31.1999 7.48695 31.4479 7.29937 31.6939 7.11328L31.6947 7.11264C32.2576 6.68678 32.8102 6.26875 33.3909 5.89509C33.8999 5.56572 33.8456 5.3112 33.5593 4.86579C32.855 3.72412 31.9291 2.73514 30.8362 1.95728C29.7434 1.17941 28.5057 0.628428 27.1963 0.336866C27.0447 0.300339 26.886 0.290232 26.7273 0.280121Z" fill="#56112A"/>
<path d="M13.3079 17.6665C7.97429 18.5012 3.22265 20.4082 0 25.0513V25.2366C1.08732 25.7176 1.93883 25.3957 2.83526 24.6471C6.70544 21.4207 11.1838 19.8 16.2368 19.8168L16.2862 19.8172C16.612 19.8194 16.9352 19.8216 17.238 19.6559C17.8051 19.3415 17.951 18.7913 17.951 18.2298C17.9496 17.7552 17.6206 17.7522 17.3127 17.7495C17.2116 17.7486 17.1126 17.7478 17.0284 17.7302C15.8023 17.4846 14.5418 17.463 13.3079 17.6665Z" fill="#56112A"/>
<path d="M36.0724 20.1968C35.9595 19.9664 35.8761 19.7271 35.7946 19.4928C35.5747 18.8613 35.3675 18.2663 34.6276 17.981C34.6042 18.1786 34.5911 18.3772 34.5883 18.5761C34.6201 19.2648 34.5097 19.6653 33.6638 19.263C33.1024 18.9972 32.7113 19.3509 32.541 19.9049C32.3662 20.4618 32.2014 21.0224 32.0365 21.5834C31.9648 21.8274 31.893 22.0714 31.8204 22.3153C30.8286 25.6615 29.0133 28.4462 26.2285 30.5946C25.319 31.3002 24.4413 32.0469 23.5729 32.8048C23.2304 33.1024 23.0826 33.1024 22.8243 32.6888C21.9448 31.3039 21.9373 31.0906 23.1575 30.0463C26.5092 27.183 28.9253 23.7152 30.0145 19.4052C30.3888 17.9398 31.0999 16.9049 32.5372 16.2031C34.6688 15.1626 36.5234 13.6636 38.174 11.953C38.5876 11.5245 38.8721 11.5993 39.2763 11.8557C40.6556 12.7353 40.7323 14.5357 39.3138 15.2786C38.0168 15.9598 37.2945 16.9629 36.9239 18.3123C36.7457 18.983 36.458 19.6197 36.0724 20.1968Z" fill="#56112A"/>
<path d="M22.2203 29.6514C27.2601 25.5791 29.4516 20.0958 30.0804 13.847C30.0499 12.9962 29.939 12.1503 29.7492 11.3205C29.6051 10.7422 29.4479 10.5382 28.8565 10.9593C28.3362 11.3057 27.909 11.7746 27.6123 12.3247C27.3157 12.8749 27.1588 13.4895 27.1553 14.1146C27.0945 15.6374 26.8622 17.1484 26.4629 18.6192C25.5028 22.2685 23.5434 25.3134 20.8055 27.8829L20.7519 27.9329C20.5429 28.1275 20.2325 28.4167 20.2702 28.4836C20.5628 29.0313 20.9307 29.5353 21.3632 29.9808C21.6222 30.2263 21.8668 29.988 22.0731 29.787C22.1247 29.7368 22.1739 29.6889 22.2203 29.6514Z" fill="#56112A"/>
<path d="M26.5297 12.8307C26.4787 15.148 26.0689 17.4434 25.3152 19.6353C24.2335 22.6858 22.4537 25.2684 20.1256 27.4954C19.8037 27.8024 19.6128 27.8847 19.2049 27.6002L19.1356 27.5516C17.7605 26.5873 17.7256 26.5628 18.8062 25.1673C21.1268 22.13 22.871 18.8549 23.2584 14.9754C23.2746 14.6459 23.3991 14.3309 23.6126 14.0795C23.8262 13.8281 24.1168 13.6542 24.4393 13.5849C24.9089 13.4568 25.3641 13.2796 25.852 13.0897C26.07 13.0048 26.2945 12.9174 26.5297 12.8307Z" fill="#56112A"/>
<path d="M15.0261 20.6796C14.9951 20.6825 14.9644 20.6882 14.9344 20.6965L14.9363 20.6572C14.6535 20.6915 14.3702 20.7204 14.0871 20.7493L14.0861 20.7494C13.5659 20.8025 13.0463 20.8556 12.5314 20.9416C8.38428 21.6322 4.87155 23.5598 1.89406 26.498C1.36444 27.0201 1.138 27.5984 1.45614 28.347C1.89968 29.3688 2.00261 29.4006 2.83541 28.6633C5.94951 25.8991 9.49593 24.0445 13.6899 23.5486C14.1081 23.5027 14.5128 23.3732 14.8799 23.1677C15.2471 22.9623 15.5692 22.6851 15.8271 22.3527C15.896 22.2663 15.9737 22.1771 16.0532 22.0857C16.4077 21.6784 16.7988 21.229 16.6093 20.8088C16.481 20.5248 15.996 20.5815 15.525 20.6365C15.3505 20.6569 15.1779 20.6771 15.0261 20.6796Z" fill="#56112A"/>
<path d="M22.5751 14.455C22.0792 18.198 20.6288 21.5554 18.3662 24.5609C17.5615 25.6333 16.5434 26.2321 15.1342 25.9065C14.4511 25.7493 14.2322 25.5846 14.7917 24.9277C16.4105 23.0319 17.9133 21.0463 18.7555 18.6546C19.0025 17.9528 19.2439 17.2491 19.4535 16.5342C20.0037 14.6572 20.5483 14.2829 22.5751 14.455Z" fill="#56112A"/>
<path d="M12.3534 15.5236C7.93677 16.0458 3.88132 17.4531 0.512695 20.5373C1.7647 21.7331 1.76657 21.7331 3.11028 20.7656C7.35288 17.7207 12.112 16.5342 17.2828 16.8729L17.4032 16.8802C18.0385 16.9187 18.3554 16.9379 18.5386 16.7907C18.7209 16.6442 18.7709 16.333 18.8706 15.7121L18.8811 15.6471C18.9653 15.1231 18.823 15.0632 18.3084 15.0857C16.319 15.1755 14.3315 15.2934 12.3534 15.5236Z" fill="#56112A"/>
<path d="M11.8234 26.0887C8.57407 28.294 5.43425 30.4249 3.22276 33.7574C2.77735 32.8553 2.40494 32.0543 2.1972 31.1804C2.13653 30.9698 2.1348 30.7465 2.19222 30.535C2.24964 30.3235 2.36399 30.1318 2.52284 29.9808C5.53214 27.0351 9.03738 25.0626 13.2669 24.5011C13.5375 24.4961 13.8081 24.508 14.0772 24.5367C13.3269 25.0683 12.5722 25.5805 11.8234 26.0887Z" fill="#56112A"/>
<path d="M30.917 13.8132C30.844 14.5824 30.7691 15.3572 30.6812 16.2667C33.0538 15.2142 35.2238 13.7542 37.0928 11.953L37.0953 11.9506C37.5953 11.4718 37.8384 11.2391 37.8368 11.0081C37.8352 10.7895 37.6147 10.5725 37.1855 10.1502L37.0815 10.0479C36.5725 9.54445 36.2151 9.59685 35.6836 9.97114C34.681 10.6885 33.6536 11.3775 32.6303 12.0638L32.6288 12.0648C32.3365 12.2609 32.0445 12.4567 31.7535 12.6529C31.3231 12.9411 30.9675 13.2518 30.917 13.8132Z" fill="#56112A"/>
<path d="M30.98 12.4957C30.9579 12.4341 30.9404 12.386 30.9262 12.3472C30.8947 12.2611 30.8799 12.2207 30.8696 12.1794C30.0986 9.11213 30.5459 8.21195 33.4728 6.93936C34.3056 6.5763 36.0199 7.22195 36.4054 8.02106C36.5094 8.23655 36.3901 8.31129 36.2771 8.38206C36.2498 8.39918 36.2229 8.41606 36.1995 8.43466C34.8735 9.47168 33.544 10.5042 32.1753 11.5672L30.98 12.4957Z" fill="#56112A"/>
<path d="M9.77307 29.548C9.69032 30.574 9.6149 31.5089 9.54801 32.4454C9.51994 32.8197 9.48438 33.0891 9.02587 32.7822C8.76196 32.6052 8.49469 32.4326 8.2274 32.26C7.89582 32.0459 7.56394 31.8316 7.23863 31.6088C6.76141 31.2832 6.67719 30.8303 7.09453 30.4354C7.68466 29.8844 8.29928 29.3587 8.975 28.7808C9.26998 28.5285 9.57665 28.2662 9.89797 27.9875C9.85472 28.5358 9.81302 29.0527 9.77307 29.548Z" fill="#56112A"/>
<path d="M29.0904 32.6926C29.1577 32.7168 29.2273 32.7343 29.2981 32.745C29.3994 32.3651 29.5004 31.9875 29.601 31.6114C29.8964 30.507 30.1881 29.4163 30.4715 28.3246C30.4787 28.2973 30.4872 28.2686 30.496 28.239C30.5513 28.0529 30.6171 27.8317 30.4266 27.722C30.1926 27.5879 30.0572 27.7622 29.9323 27.923C29.9004 27.9641 29.8691 28.0043 29.8371 28.0382C29.4516 28.445 29.0773 28.8604 28.7142 29.2846C28.5471 29.4812 28.3231 29.6763 28.1006 29.8701C27.6305 30.2796 27.1667 30.6836 27.2582 31.085C27.3614 31.5331 27.897 31.8828 28.4319 32.232C28.6632 32.3829 28.8943 32.5338 29.0904 32.6926Z" fill="#56112A"/>
</svg>
