<svg width="20" height="20" viewBox="0 0 20 20" fill="none" xmlns="http://www.w3.org/2000/svg">
<path d="M20 18.9529L14.2339 13.1862C15.5564 11.5943 16.2146 9.55405 16.0717 7.48946C15.9287 5.42486 14.9956 3.49476 13.4663 2.10034C11.937 0.705926 9.92915 -0.0455425 7.86008 0.00213775C5.79101 0.049818 3.8199 0.89298 2.35646 2.35636C0.893015 3.81975 0.04982 5.79078 0.00213784 7.85977C-0.0455443 9.92876 0.705955 11.9365 2.10043 13.4658C3.4949 14.995 5.42508 15.9281 7.48976 16.071C9.55443 16.214 11.5948 15.5558 13.1867 14.2333L18.9528 20L20 18.9529V18.9529ZM0.854171 8.04902C0.854014 6.62597 1.27587 5.23484 2.06639 4.05154C2.85691 2.86824 3.98059 1.94593 5.29532 1.40125C6.61005 0.856564 8.05678 0.713968 9.45256 0.991494C10.8483 1.26902 12.1305 1.9542 13.1368 2.96039C14.1432 3.96659 14.8285 5.24859 15.1062 6.64428C15.3839 8.03997 15.2414 9.48666 14.6969 10.8014C14.1523 12.1161 13.2301 13.2399 12.0468 14.0305C10.8636 14.8211 9.47244 15.2431 8.04934 15.2431C6.14171 15.241 4.31281 14.4823 2.96391 13.1335C1.61501 11.7846 0.856273 9.95578 0.854171 8.04822V8.04902Z" fill="white"/>
</svg>
