<svg width="20" height="20" viewBox="0 0 20 20" fill="none" xmlns="http://www.w3.org/2000/svg">
<path d="M10 1.09926e-06C8.02202 1.25017e-06 6.08847 0.58659 4.4439 1.68558C2.79932 2.78456 1.5176 4.34658 0.760835 6.17407C0.00407384 8.00156 -0.193731 10.0124 0.192438 11.9523C0.578607 13.8923 1.5314 15.6741 2.93032 17.0724C4.32923 18.4708 6.11143 19.4229 8.05149 19.8083C9.99156 20.1937 12.0024 19.9951 13.8295 19.2377C15.6567 18.4802 17.2183 17.1979 18.3166 15.5529C19.4149 13.9079 20.0008 11.9741 20 9.99609C20.0001 8.68303 19.7415 7.38281 19.2389 6.16973C18.7364 4.95665 17.9997 3.85447 17.0711 2.92618C16.1424 1.99788 15.0399 1.26166 13.8267 0.759578C12.6134 0.257493 11.3131 -0.000614692 10 1.09926e-06V1.09926e-06ZM10 0.832813C11.7404 0.831792 13.4451 1.32674 14.9144 2.25968C16.3836 3.19262 17.5566 4.52493 18.2959 6.10052C19.0352 7.67612 19.3102 9.42976 19.0887 11.156C18.8672 12.8823 18.1584 14.5097 17.0453 15.8477C16.132 15.4664 13.975 14.718 12.6406 14.3234C12.5266 14.2875 12.5086 14.282 12.5086 13.8078C12.5331 13.4164 12.6416 13.0349 12.8266 12.6891C13.0442 12.2058 13.1938 11.6947 13.2711 11.1703C13.6201 10.7068 13.8457 10.1621 13.9266 9.5875C14.0649 9.15443 14.0577 8.68801 13.9063 8.25937C13.8953 8.23125 13.8844 8.2039 13.8758 8.17578C13.8578 7.54963 13.9073 6.92336 14.0234 6.30781C14.1136 5.42289 13.8555 4.53764 13.3039 3.83984C12.9621 3.42331 12.5332 3.08683 12.0472 2.85411C11.5613 2.6214 11.0302 2.49812 10.4914 2.49297H9.64688C9.11186 2.50031 8.58493 2.62468 8.10311 2.85736C7.62128 3.09005 7.19623 3.42539 6.85782 3.83984C6.30676 4.53791 6.04898 5.42303 6.13907 6.30781C6.25537 6.9223 6.3054 7.54749 6.28828 8.17265C6.28011 8.20232 6.26966 8.23131 6.25703 8.25937C6.10604 8.68814 6.09918 9.15448 6.2375 9.5875C6.31803 10.1615 6.54363 10.7055 6.89297 11.168C6.96952 11.6925 7.11915 12.2037 7.3375 12.6867C7.47943 13.0484 7.54178 13.4363 7.52032 13.8242C7.52032 14.2984 7.50235 14.3039 7.3961 14.3375C6.01563 14.7453 3.81875 15.5391 2.99922 15.9C1.87178 14.5662 1.1493 12.9378 0.917011 11.2069C0.684724 9.47595 0.952317 7.71469 1.68823 6.13085C2.42413 4.54702 3.59766 3.20669 5.07037 2.26796C6.54309 1.32923 8.25355 0.83127 10 0.832813V0.832813ZM3.60235 16.5477C4.53985 16.1648 6.41016 15.4977 7.63906 15.1352C8.35313 14.9102 8.35313 14.3086 8.35313 13.825C8.37269 13.3152 8.28347 12.807 8.09141 12.3344C7.89254 11.8943 7.76238 11.4264 7.70547 10.9469C7.69673 10.8396 7.64624 10.74 7.56485 10.6695C7.28321 10.3096 7.1064 9.87897 7.05391 9.425C6.93282 8.82109 6.98438 8.68906 7.0336 8.56094C7.05579 8.50573 7.07509 8.4494 7.09141 8.39219C7.14972 7.64535 7.10503 6.89404 6.9586 6.15937C6.91154 5.50927 7.10972 4.86513 7.51407 4.35391C7.77785 4.03619 8.10765 3.77971 8.48055 3.6023C8.85345 3.42489 9.26051 3.3308 9.67344 3.32656H10.4633C10.8808 3.32808 11.293 3.42089 11.6708 3.59849C12.0487 3.77609 12.3832 4.03419 12.6508 4.35469C13.0545 4.86611 13.2516 5.5104 13.2031 6.16016C13.0571 6.8946 13.0124 7.6456 13.0703 8.39219C13.0875 8.45312 13.107 8.50703 13.1281 8.56172C13.1781 8.68906 13.2289 8.82187 13.1086 9.42578C13.056 9.87986 12.8789 10.3106 12.5969 10.6703C12.5162 10.7413 12.4659 10.8406 12.4563 10.9477C12.4003 11.4272 12.2707 11.8952 12.0719 12.3352C11.834 12.7916 11.6986 13.2944 11.675 13.8086C11.675 14.2922 11.675 14.8937 12.3969 15.1211C13.5688 15.4687 15.4516 16.1141 16.4438 16.5039C14.7391 18.1979 12.4359 19.1525 10.0327 19.161C7.62953 19.1695 5.31965 18.2312 3.60313 16.5492L3.60235 16.5477Z" fill="white"/>
</svg>
